<?xml version="1.0" standalone="no"?>
<!DOCTYPE svg PUBLIC "-//W3C//DTD SVG 1.1//EN" "http://www.w3.org/Graphics/SVG/1.1/DTD/svg11.dtd">
<svg xmlns="http://www.w3.org/2000/svg">
<metadata>Generated by Fontastic.me</metadata>
<defs>
<font id="brands" horiz-adv-x="512">
<font-face font-family="brands" units-per-em="512" ascent="480" descent="-32"/>
<missing-glyph horiz-adv-x="512" />

<glyph glyph-name="yt" unicode="&#57344;" d="M489 316c-6 21-22 38-43 44-38 10-190 10-190 10 0 0-152 0-190-10-21-6-37-23-43-44-10-38-10-117-10-117 0 0 0-80 10-118 6-21 22-37 43-42 38-11 190-11 190-11 0 0 152 0 190 11 21 5 37 21 43 42 10 38 10 118 10 118 0 0 0 79-10 117z m-283-189l0 144 127-72z"/>
<glyph glyph-name="wh" unicode="&#57345;" d="M435 364c-48 48-111 75-179 75-140 0-254-114-254-254 0-45 12-88 34-127l-36-131 135 35c37-20 78-31 121-31l0 0c140 0 256 114 256 254 0 68-29 131-77 179z m-179-390c-38 0-75 10-108 29l-7 5-80-21 21 78-5 8c-21 34-32 72-32 112 0 116 95 211 211 211 56 0 109-22 149-62 40-40 64-93 64-149 0-116-97-211-213-211z m116 158c-7 3-38 19-44 21-6 2-10 3-14-4-4-6-16-20-20-25-4-4-8-4-14-1-37 18-62 33-86 75-7 11 6 11 18 35 3 4 1 8 0 11-2 3-14 34-20 47-5 12-10 11-14 11-4 0-8 0-12 0-4 0-11-1-17-8-6-6-22-21-22-53 0-31 23-61 26-65 3-4 44-68 108-96 40-17 56-19 76-16 12 2 38 15 43 30 5 15 5 28 4 30-2 3-6 5-12 8z"/>
<glyph glyph-name="sn" unicode="&#57346;" d="M511 55c-5-12-27-21-68-27-2-3-3-15-6-24-2-6-6-9-12-9l0 0c-10 0-20 5-39 5-27 0-36-7-57-21-21-16-42-29-74-27-31-3-58 16-72 27-21 15-30 21-57 21-19 0-30-5-39-5-8 0-11 5-12 9-3 9-4 21-6 24-21 3-68 11-69 32 0 6 4 10 9 11 69 12 101 83 102 86 0 0 0 0 0 1 4 7 5 13 3 18-5 12-27 17-36 20-24 10-27 20-26 28 3 13 22 20 33 15 9-4 17-6 24-6 5 0 8 1 10 2-2 36-7 87 5 116 34 76 106 82 127 82 1 0 9 0 10 0 52 0 102-27 127-82 12-29 7-80 5-116 2-1 5-2 9-2 6 0 14 2 22 6 6 3 14 3 21 0l0 0c9-3 15-10 15-18 0-10-8-18-26-25-2-1-4-1-7-2-10-3-25-8-29-18-2-5-1-11 3-18 0-1 0-1 0-1 1-3 33-74 102-86 7-1 11-8 8-16z"/>
<glyph glyph-name="bh" unicode="&#57347;" d="M206 216c28 13 43 34 43 66 0 62-47 78-100 78l-149 0 0-315 153 0c57 0 111 27 111 91 0 40-19 69-58 80z m-137 90l65 0c25 0 48-7 48-36 0-27-18-38-43-38l-70 0z m74-208l-74 0 0 87 76 0c30 0 49-13 49-45 0-32-23-42-51-42z m319 214l-128 0 0 31 128 0z m50-157c0 68-39 124-111 124-70 0-117-52-117-121 0-71 45-119 117-119 54 0 90 24 107 76l-56 0c-6-19-30-29-49-29-37 0-56 21-56 58l164 0c1 3 1 7 1 11z m-165 28c2 30 22 49 52 49 31 0 47-19 50-49z"/>
<glyph glyph-name="ln" unicode="&#57348;" d="M311 242l0-81c0-2-2-4-4-4l-13 0c-1 0-2 1-3 2l-37 50 0-48c0-2-2-4-4-4l-13 0c-2 0-3 2-3 4l0 81c0 2 1 4 3 4l13 0c1 0 3-1 3-2l38-50 0 48c0 2 1 4 3 4l13 0c2 0 4-2 4-4z m-94 4l-13 0c-2 0-3-2-3-4l0-81c0-2 1-4 3-4l13 0c2 0 4 2 4 4l0 81c0 2-2 4-4 4z m-31-68l-36 0 0 64c0 2-1 4-3 4l-13 0c-2 0-4-2-4-4l0-81c0-1 0-2 1-3 1 0 1-1 2-1l53 0c2 0 3 2 3 4l0 13c0 2-1 4-3 4z m194 68l-53 0c-2 0-3-2-3-4l0-81c0-2 1-4 3-4l53 0c2 0 3 2 3 4l0 13c0 2-1 3-3 3l-36 0 0 14 36 0c2 0 3 2 3 4l0 13c0 2-1 4-3 4l-36 0 0 13 36 0c2 0 3 2 3 4l0 13c0 2-2 4-3 4z m132 99l0-326c0-51-42-92-93-92l-326 0c-52 0-93 42-93 93l0 326c0 51 42 93 93 93l326 0c52 0 93-42 93-94z m-70-140c0 84-84 152-187 152-103 0-186-68-186-152 0-74 66-137 156-149 22-5 19-13 14-42-1-5-4-18 16-10 20 8 108 63 147 108 27 30 40 60 40 93z"/>
<glyph glyph-name="vb" unicode="&#57349;" d="M444 398c-13 12-64 49-179 50 0 0-135 8-201-53-36-36-49-90-50-157-2-66-4-191 117-224l0 0 0-52c0 0-1-21 13-25 16-5 26 11 42 28 9 9 21 23 30 33 82-7 145 9 152 12 17 5 111 17 126 142 16 128-8 209-50 246z m14-237c-13-104-89-111-103-115-6-2-62-16-131-11 0 0-52-63-68-79-6-6-12-5-11 5 0 7 0 86 0 86 0 0 0 0 0 0-102 28-96 134-95 190 1 55 12 101 43 131 56 51 170 43 170 43 97 0 144-29 154-39 36-31 54-104 41-211z m-139 81c0-9-13-9-13-1-1 22-11 33-33 34-8 1-7 13 1 13 28-2 44-18 45-46z m20-12c1 43-25 76-76 80-8 0-7 13 1 13 58-5 89-44 88-93 0-8-13-8-13 0z m47-13c0-9-13-9-13 0 0 81-55 126-120 126-9 0-9 13 0 13 73 0 133-51 133-139z m-11-98l0 0c-11-19-31-40-52-34l0 1c-21 6-71 31-102 56-16 13-31 28-43 43-10 13-20 28-30 46-22 39-26 56-26 56-7 21 14 41 33 52l0 0c9 5 18 3 24-4 0 0 12-15 18-22 5-7 11-18 15-24 6-11 2-22-4-27l-12-9c-6-5-5-14-5-14 0 0 18-68 84-85 0 0 9 0 14 6l10 12c4 6 15 10 26 3 15-8 34-21 46-32 7-6 9-15 4-24z"/>
<glyph glyph-name="pt" unicode="&#57350;" d="M272 503c-137 0-272-91-272-238 0-94 53-148 85-148 13 0 21 37 21 48 0 12-32 38-32 90 0 107 82 183 187 183 91 0 158-51 158-146 0-71-28-204-120-204-33 0-62 24-62 59 0 50 35 99 35 151 0 88-125 72-125-35 0-22 3-47 13-67-18-79-56-197-56-279 0-25 4-50 6-75 5-5 2-5 9-2 67 92 65 110 95 230 17-31 59-48 93-48 141 0 205 138 205 263 0 132-114 218-240 218z"/>
<glyph glyph-name="tg" unicode="&#57351;" d="M511 363l-78-365c-6-25-21-32-42-20l-118 87-57-54c-6-7-11-12-24-12l9 120 218 197c10 8-2 13-15 5l-269-170-116 36c-26 8-26 25 5 38l454 175c21 7 39-5 33-37z"/>
<glyph glyph-name="vk" unicode="&#57352;" d="M484 322c4 11 0 19-15 19l-53 0c-13 0-19-7-22-15 0 0-27-64-65-107-12-12-18-16-24-16-4 0-9 4-9 15l0 104c0 13-3 19-14 19l-83 0c-8 0-13-6-13-12 0-12 19-15 21-51l0-77c0-17-3-20-10-20-18 0-61 65-87 140-5 14-10 20-23 20l-53 0c-14 0-17-7-17-15 0-13 17-82 82-173 44-62 105-96 160-96 33 0 37 7 37 20 0 60-3 65 14 65 8 0 21-4 52-34 36-35 42-51 62-51l52 0c15 0 22 7 18 22-10 31-77 95-80 99-8 10-6 15 0 24 0 0 64 90 70 120z"/>
<glyph glyph-name="ms" unicode="&#57353;" d="M256 439c-238 0-345-281-159-421l0-91 86 48c163-46 326 68 326 227 0 131-113 237-253 237z m27-318l-66 68-126-70 138 147 66-68 126 70z"/>
<glyph glyph-name="sk" unicode="&#57354;" d="M485 133c4 16 6 33 6 50 0 130-105 234-235 234-17 0-34-1-50-5-22 17-49 27-78 27-71 0-128-58-128-128 0-30 10-56 27-78-4-16-6-33-6-50 0-130 105-235 235-235 17 0 34 2 50 6 22-17 49-27 78-27 71 0 128 57 128 128 0 29-10 56-27 78z m-222-105c-75 0-138 34-138 75 0 18 11 34 34 34 36 0 39-51 101-51 29 0 48 13 48 30 0 22-18 25-48 32-71 18-135 25-135 100 0 68 67 93 125 93 63 0 127-25 127-64 0-19-13-36-35-36-32 0-33 38-86 38-29 0-48-8-48-26 0-22 24-24 79-37 48-11 104-31 104-89 0-67-65-99-128-99z"/>
<glyph glyph-name="fb" unicode="&#57355;" d="M512 411l0-456c0-15-13-28-28-28l-131 0 0 198 67 0 10 77-77 0 0 50c0 22 6 37 38 37l41 0 0 70c-7 0-31 3-59 3-59 0-100-36-100-103l0-57-66 0 0-77 66 0 0-198-245 0c-15 0-28 13-28 28l0 456c0 15 13 28 28 28l456 0c15 0 28-13 28-28z"/>
<glyph glyph-name="ig" unicode="&#57356;" d="M256 314c-73 0-131-58-131-131 0-73 58-131 131-131 73 0 131 58 131 131 0 73-58 131-131 131z m0-216c-47 0-85 38-85 85 0 47 38 85 85 85 47 0 85-38 85-85 0-47-38-85-85-85z m167 222c0-17-13-31-30-31-17 0-31 14-31 31 0 17 14 30 31 30 17 0 30-13 30-30z m87-31c-2 41-11 77-41 107-30 30-66 39-107 41-43 3-169 3-212 0-41-2-77-11-107-41-30-30-39-66-41-107-3-43-3-169 0-212 2-41 11-77 41-107 30-30 66-39 107-41 43-3 169-3 212 0 41 2 77 11 107 41 30 30 39 66 41 107 3 43 3 169 0 212z m-54-257c-9-22-26-40-49-49-34-13-114-10-151-10-37 0-117-3-151 10-22 9-40 26-49 49-13 34-10 114-10 151 0 37-3 117 10 151 9 22 27 40 49 49 34 13 114 10 151 10 37 0 117 3 151-10 22-9 40-27 49-49 13-34 10-114 10-151 0-37 3-117-10-151z"/>
<glyph glyph-name="tc" unicode="&#57357;" d="M46 439l-35-88 0-359 123 0 0-65 69 0 64 65 100 0 134 133 0 314z m409-291l-77-76-122 0-65-65 0 65-103 0 0 321 367 0z m-77 157l0-133-46 0 0 133z m-122 0l0-133-46 0 0 133z"/>
<glyph glyph-name="tw" unicode="&#57358;" d="M459 296c1-4 1-9 1-13 0-139-106-299-299-299-59 0-115 17-161 47 8-1 17-1 25-1 49 0 95 16 131 45-47 1-85 31-98 72 6 0 12-1 19-1 10 0 19 1 28 3-48 10-84 52-84 103l0 2c14-8 30-13 47-14-28 19-47 51-47 88 0 19 6 37 15 53 51-64 129-106 216-110-2 8-2 16-2 24 0 58 46 105 104 105 31 0 58-13 77-33 24 4 47 13 67 25-8-24-25-45-46-58 21 3 41 8 60 17-14-21-32-40-53-55z"/>
<glyph glyph-name="ok" unicode="&#57359;" d="M409 67c-36-24-86-33-120-36l28-28 102-101c37-39-23-98-61-61-25 26-63 63-102 102l-101-102c-38-37-98 23-61 61 26 26 63 63 102 101l27 28c-32 3-84 12-120 36-44 28-63 44-46 78 10 20 37 36 73 8 0 0 48-38 126-38 78 0 127 38 127 38 36 28 62 12 72-8 17-34-2-50-46-78z m-326 272c0 96 78 173 173 173 95 0 173-77 173-173 0-95-78-172-173-172-95 0-173 77-173 172z m88 0c0-47 38-85 85-85 47 0 85 38 85 85 0 47-38 85-85 85-47 0-85-38-85-85z"/>
<glyph glyph-name="fb-o" unicode="&#57360;" d="M182-171l0 306-102 0 0 121 102 0 0 96c0 103 64 160 156 160 45 0 83-3 94-5l0-108-64 0c-51 0-60-24-60-59l0-84 113 0-15-121-98 0 0-306"/>
<glyph glyph-name="play" unicode="&#57361;" d="M325 214l-220 221 280-161z m-278 234c-13-7-22-19-22-35l0-442c0-16 9-28 22-35l257 256z m425-226l-59 34-65-64 65-65 60 35c18 14 18 46-1 60z m-367-273l280 161-60 60z"/>
<glyph glyph-name="in" unicode="&#57362;" d="M475 439l-439 0c-20 0-36-17-36-37l0-438c0-21 16-37 36-37l439 0c21 0 37 16 37 37l0 438c0 20-16 37-37 37z m-320-439l-76 0 0 244 76 0 0-244z m-38 278c-25 0-44 19-44 44 0 24 19 44 44 44 24 0 44-20 44-44 0-25-20-44-44-44z m322-278l-76 0 0 119c0 28 0 65-39 65-40 0-46-31-46-63l0-121-76 0 0 244 73 0 0-33 1 0c10 19 35 39 72 39 77 0 91-50 91-116z"/>
<glyph glyph-name="dr" unicode="&#57363;" d="M256 504c-137 0-248-111-248-248 0-137 111-248 248-248 137 0 248 111 248 248 0 137-111 248-248 248z m164-114c29-36 47-82 48-132-7 1-77 15-148 6-5 15-11 27-18 42 78 32 114 78 118 84z m-24 24c-3-5-35-48-111-76-34 63-73 116-79 124 68 16 138-2 190-48z m-230 33c6-7 43-60 78-122-99-26-186-26-195-26 13 66 58 120 117 148z m-122-191c0 2 0 4 0 6 10 0 112-1 218 30 6-12 12-24 17-36-76-21-146-83-180-142-34 38-55 87-55 142z m82-167c22 45 82 103 168 132 29-77 42-142 45-160-68-29-150-21-213 28z m248-9c-2 13-13 75-41 151 67 11 125-7 132-9-9-59-43-110-91-142z"/>
<glyph glyph-name="tk" unicode="&#57365;" d="M116 448l280 0c29 0 52-23 52-52l0-280c0-29-23-52-52-52l-280 0c-29 0-52 23-52 52l0 280c0 29 23 52 52 52z m196-156c16-12 37-19 59-19l0 43c-4 0-8 0-12 1l0-33c-23 0-43 7-60 19l0-88c0-43-35-79-79-79-16 0-32 5-44 14 14-15 34-24 56-24 44 0 80 35 80 79z m15 43c-9 10-14 22-15 35l0 6-12 0c3-17 13-32 27-41z m-123-152c-5 6-8 14-8 22 0 20 16 36 36 36 4 0 8 0 11-2l0 44c-4 1-8 1-12 1l0-34c-4 1-7 2-11 2-20 0-36-17-36-37 0-14 8-26 20-32z m95 120c17-12 37-19 60-19l0 33c-13 3-24 9-32 18-14 9-24 24-27 41l-31 0 0-171c-1-20-17-36-37-36-11 0-22 5-28 14-12 6-20 18-20 32 0 20 16 37 36 37 4 0 7-1 11-2l0 34c-43-1-78-36-78-79 0-22 9-41 23-55 12-9 28-14 44-14 44 0 79 36 79 79z m60 14l0 9c-12 0-22 3-32 9 8-9 19-15 32-18z m-59 59c-1 1-1 3-1 5l0 5-43 0 0-171c0-20-16-36-36-36-6 0-12 2-16 4 6-9 17-14 28-14 20 0 36 16 37 36l0 171z m-69-92l0 10c-4 0-7 0-11 0-44 0-79-35-79-79 0-27 14-51 35-65-14 14-23 33-23 55 0 43 35 78 78 79z"/>
<glyph glyph-name="tik-tok" unicode="&#57364;" d="M465 400c-54 0-98 43-98 97 0 8-6 15-15 15l-80 0c-8 0-15-7-15-15l0-329c0-32-26-58-57-58-32 0-58 26-58 58 0 31 26 57 58 57 8 0 15 7 15 15l0 80c0 9-7 15-15 15-93 0-168-75-168-167 0-93 75-168 168-168 92 0 167 75 167 168l0 145c30-15 63-24 98-24 8 0 15 7 15 15l0 81c0 8-7 15-15 15z"/>
<glyph glyph-name="g" unicode="&#57366;" d="M512 183c0-149-102-254-252-254-144 0-260 116-260 260 0 144 116 260 260 260 70 0 129-26 175-68l-71-68c-93 89-265 22-265-124 0-91 72-164 161-164 103 0 142 73 148 112l-148 0 0 89 248 0c2-13 4-26 4-43z"/>
</font>
</defs>
</svg>
